<svg xmlns="http://www.w3.org/2000/svg" viewBox="0 0 1426 322.25" fill="#0031f5"><g id="Layer_2" data-name="Layer 2"><g id="Layer_1-2" data-name="Layer 1"><path d="M1316,322.25c0-9.15,0-18.3-.09-27.44-.25-20.95-.78-41.89-.8-62.83,0-28.94.32-57.88.54-86.81a33.78,33.78,0,0,1,.55-4.28,3.17,3.17,0,0,1,.66-.27c4.7-.21,4.7-.2,4.7-5,0-5,0-10,0-15,0-1.86.44-2.7,2.53-2.61,3.83.18,7.67,0,11.49.1,2.34.08,3.13-.91,3.08-3.1-.07-2.91,0-5.83,0-8.74-.06-2,.6-2.84,2.74-2.79,3.9.08,4.18-.31,4.18-4.31,0-2.33.09-4.67,0-7-.11-2,.55-2.77,2.68-2.74,8.16.1,16.32,0,24.49,0,3.85,0,4-.19,4-4.14,0-2.41,0-4.82,0-7.24,0-1.5.17-2.58,2.12-2.54,1.76,0,2.6.6,2.53,2.49-.09,2.91.05,5.82,0,8.73,0,1.93.77,2.79,2.66,2.7.42,0,.84,0,1.25,0,4,0,4,0,4-4,0-1.38-.14-2.61,2-2.65s2.84.63,2.75,2.7c-.16,3.69.17,4,3.87,4,8.25,0,16.5.06,24.74-.05,2.23,0,3.08.76,2.85,2.9a6.23,6.23,0,0,0,0,.75q.24,113.21.47,226.41c0,.91.1,1.82.15,2.73Z"/><path d="M534,322.25c0-1.16.15-2.32.15-3.48q0-92,0-184.08c0-2.22-.33-4.56,3.1-4.22a.34.34,0,0,0,.24-.06c2.43-1.94,1.16-4.63,1.34-7,.11-1.41-.51-2.7-2.26-2.68s-2-1-2-2.42c.06-1.83.12-3.67,0-5.5s.54-2.32,2.28-2.3c7,.07,14,0,21,0,3.33,0,3.39-.07,3.42-3.3a10.31,10.31,0,0,1,.06-2.73,8.08,8.08,0,0,1,1.46-2.11c.42.66,1.09,1.28,1.21,2a23.15,23.15,0,0,1,.07,3.73c0,1.64.86,2.52,2.49,2.4,2-.15,4.72,1,5.37-2.46.07-.35,1.58-.58,2.43-.6,1.91-.06,3.87.31,4.53-2.37.1-.44,1.69-.71,2.6-.73,4.64-.11,4.83-.33,4.46-5a7.38,7.38,0,0,1,.75-2.43l1.05-.05a14.74,14.74,0,0,1,.62,3.34c-.09,2.42.06,4.41,3.28,4.21a1.64,1.64,0,0,1,1.27.91c.42,2.32,2.08,2.2,3.8,2.19,5.08,0,10.16,0,15.18,0,1.3,3.14,1.3,3.14,4.66,3.14,5,0,10,.06,15,0,2,0,2.75.66,2.6,2.61a29.52,29.52,0,0,0,0,4c.13,2.14,0,3.86-3,3.63-.48,0-1.36,1.07-1.53,1.78a15.48,15.48,0,0,0-.09,3.48c0,3.69,0,3.64,3.6,4.55,1.9.48,2.79,1.51,2.79,3.8q-.12,92.17-.06,184.33c0,1.16.1,2.32.15,3.48Z"/><path d="M0,131.42H16.05V120.73h10.7v10.62h5.31V110.78h6.7v20.7H90.65V321.1h-3q-42.24,0-84.47,0c-1.08,0-2.15.1-3.23.15Z"/><path d="M674,322.25c0-1.08.15-2.15.15-3.23q0-63.93,0-127.85V187.6h7.91V148.75h5.7v38.61h22.29v-5.68h26.69v5.71l5.09.24v3.29q0,64.05,0,128.1c0,1.08.1,2.15.15,3.23Z"/><path d="M1019.15,320.93V317.8q0-133,0-266c0-7.64.32-15.28.43-22.92,0-1.69.66-2.43,2.38-2.37,2.08.08,4.17,0,6.25,0,1.78,0,2.52.76,2.57,2.56.08,3.38.15,3.39,3.56,3.39,4,0,8,.05,12,0,1.59,0,2.37.53,2.2,2.17a6.09,6.09,0,0,0,0,.74c0,5.38-.8,5.74,5.81,5.63h.5c6.62,0,6.66,0,7-6.48.08-1.49.61-2.06,2.09-2q11.38.06,22.75,0c1.48,0,2.17.49,2.07,2-.08,1.08.09,2.18,0,3.25-.29,2.46.9,3.22,3.18,3.22,11.33,0,22.66.07,34,0,2.09,0,2.91.6,2.88,2.65,0,2.82.08,5.65.08,8.48l0,265.5v3.38Z"/><path d="M371.69,320.76H359.34c-1.08,0-2.16-.09-3.24-.09h-72c-3.51,0-3.49,0-3.52-3.61-.11-15.56-.35-31.13-.33-46.69.06-39.37.24-78.74.31-118.11,0-2.34.59-3.22,3.1-3.14,6.16.21,12.33.12,18.5.12,3.66,0,3.95-.32,3.95-4q0-70.68,0-141.36c0-3.85,0-3.85,3.75-3.85h51.25c3.31,0,3.32,0,3.32,3.31q0,68.55,0,137.11c0,1.49-.53,3.29,1.79,3.8.27.06.6,1,.48,1.48-.66,2.43.55,3,2.62,2.82a20.25,20.25,0,0,1,2.36.12Z"/><path d="M853.63,128a2.67,2.67,0,0,1,.26.63c.53,5,.53,5,5.61,5.09,2.75,0,5.5,0,8.25-.08,1.9-.09,2.68.55,2.68,2.55,0,3.94.09,3.93,4.06,3.94,1.66,0,3.33,0,5,.11a16.37,16.37,0,0,1,2.24.5v180.2H769.36V140.62c1.56-.11,3.11-.3,4.67-.31,6.91,0,13.83-.06,20.74,0,2.26,0,3.38-.57,3.28-3.09-.14-3.39,0-3.41,3.46-3.41h31.74c3.56,0,3.74-.1,3.81-3.55,0-1.86,1-2.28,2.52-2.29C844.23,128,848.88,128,853.63,128Z"/><path d="M1310.76,103.59V320.91h-65.39V103.59c3.8,0,7.6,0,11.4,0,1.41,0,2.38-.27,2.69-1.91.1-.54,1-1.1,1.69-1.3a7.67,7.67,0,0,1,2.49-.06c2.08.1,3.18-.78,3-2.94s.72-2.9,2.78-2.73c1.41.12,2.84,0,4.25,0,2.15.15,3-.77,3-2.92-.08-7.74-.07-15.48-.05-23.22a19.53,19.53,0,0,1,.4-2.82h1a16.84,16.84,0,0,1,.43,2.62c0,7.74.13,15.48,0,23.22,0,2.4.75,3.41,3.17,3.11a20.67,20.67,0,0,1,2.49,0c3.82,0,3.74,0,4.5,3.75a3.05,3.05,0,0,0,1.88,1.78c1,.32,2.18,0,3.22.18.64.14,1.63.8,1.65,1.25.07,1.8,1.1,2,2.49,2C1302.08,103.58,1306.31,103.59,1310.76,103.59Z"/><path d="M1221.69,321h-42.4V114.47c3.57,0,7.12-.06,10.66,0,2.11.05,3.88,0,3.75-2.9,0-.37,1.29-1.17,2-1.15,2.76.08,5.11-.06,5-3.78,0-.33,1.07-1,1.63-1,.81,0,2.31.46,2.32.76.11,3.85,2.43,4.48,5.48,3.72,1,4.29,1,4.29,5.27,4.3h6.35Z"/><path d="M440.3,197.59h61.35V320.88H440.3Z"/><path d="M215.74,321c-1,0-1.69.11-2.42.1-11.24-.11-22.47-.26-33.71-.32-1.76,0-2.49-.43-2.48-2.37.05-16.73,0-33.46,0-50.19a9.84,9.84,0,0,1,.24-3.54c.25-.62,1.48-1.06,2.33-1.17,1.3-.18,2.54-.12,2.55-1.94s-1.4-1.62-2.6-1.87a10.54,10.54,0,0,1-2.34-1.14,7.69,7.69,0,0,1,2.24-1.08c1.42-.2,2.68-.32,2.66-2.21s-1.3-1.94-2.72-2.08a7.11,7.11,0,0,1-2.19-1c.78-.56,1.48-1.4,2.34-1.61,1.2-.29,2.57,0,2.57-1.87s-1.28-1.76-2.53-2a9,9,0,0,1-2.3-1.31,6.76,6.76,0,0,1,2.21-1c1.69-.07,2.7-.54,2.64-2.45s-1.15-2.19-2.67-2.15a2.11,2.11,0,0,1-1.74-.79,20.53,20.53,0,0,1,2.06-.13c1.74,0,2.35-.89,2.38-2.49s-.92-2.05-2.37-2.21A8.18,8.18,0,0,1,177.5,233a10.06,10.06,0,0,1,2.38-1.16c1.35-.26,2.74-.61,2.21-2.21-.29-.88-1.6-1.46-2.52-2.06a18.68,18.68,0,0,0-2.3-1.1,7.16,7.16,0,0,1,2.11-1.11c1.37-.18,2.75,0,2.83-2S181.1,221,179.49,221a19.07,19.07,0,0,1-2.1-.33l-.18-.85a12.59,12.59,0,0,1,2.33-.74c1.38-.15,2.75-.1,2.72-2.08s-1.4-1.61-2.63-1.81a9.5,9.5,0,0,1-2.35-1.07,8,8,0,0,1,2.34-1.56c1.22-.27,2.56,0,2.63-1.88s-1.13-2.1-2.55-2.38a9.47,9.47,0,0,1-2.36-1.22,9.24,9.24,0,0,1,2.47-1.08c1.41-.19,2.42-.52,2.41-2.2s-1.08-1.93-2.48-2.06a8.74,8.74,0,0,1-2.45-1c.88-.53,1.76-1.07,2.65-1.59s1.5-.84,2.25-1.26a21.6,21.6,0,0,0-2.3-1.66c-.39-.22-1.1.09-1.43-.16a2.74,2.74,0,0,1-1-1.51c0-.22.75-.74,1.24-.93s1.11.13,1.46-.11c.77-.54,2-1.38,1.94-1.9a4,4,0,0,0-1.92-2.25,10.4,10.4,0,0,0-2.86-.79l.14-.9a14.7,14.7,0,0,1,2.07-.28c11.32,0,22.65.11,34,.1,1.81,0,2.42.55,2.42,2.43q-.07,64.68,0,129.34C215.84,319.72,215.78,320.22,215.74,321Z"/></g></g></svg>