<svg xmlns="http://www.w3.org/2000/svg" viewBox="0 0 1400.86 345.72" fill="#859dff"><g id="Layer_2" data-name="Layer 2"><g id="Layer_1-2" data-name="Layer 1"><path d="M1082.9,0V5h7.93V8.91h29v21h6.85V343.57H1047V30.1h7.81V9h10.81c.14-1.41.26-2.61.39-4h7.86V0Z"/><path d="M0,135.89H21V130H32.91V122l4-.2v-6.73H52v6.77h4v14h38V344.72H0Z"/><path d="M328,345.72V122.09h64.94v13.72h16.86V344.72h-10c-1.83,0-3.66-.06-5.49,0-.45,0-.86.62-1.29,1Z"/><path d="M1400.86,343.72H1378V165.87h22.84Z"/><path d="M947.79,343.63H831.06V129.89h8.71V115h29.12V104h4v-7.9h5.94v18.76h69v11.93H920.1v3h27.69Z"/><path d="M437.14,206.94h33.68V344.51H437.14Z"/></g></g></svg>