<svg xmlns="http://www.w3.org/2000/svg" viewBox="0 0 1680 342" fill="#0021a3"><g id="Layer_2" data-name="Layer 2"><g id="Layer_1-2" data-name="Layer 1"><path d="M363,0V16.18c6.62,2.91,13.08,4.83,18.51,8.36a24.29,24.29,0,0,1,11.23,20.77q.24,129,.1,258c0,1.33,0,2.66,0,4,0,3.37,1.25,5.28,5.05,4.93,2.8-.25,5.64-.05,9.08-.05V283.35h73V243.48H566.7v54.3H605v-54.3H652.7v42.3H734v-14.3H860.69v41.3H875V261.36h17v-10h43V237.49h83.74v75.29h23.26V226.49l8-.55v-23.7h25c.19-2.18.33-3.79.49-5.73h15.15l.6,5.66c5.95,0,12,.22,18.09-.07,4.47-.22,6.9.8,5.07,5.87h24.58c.2-1.56.37-3,.57-4.56h10.21V216h10v10.9l8,.55v37.43h25.23c.2-1.67.41-3.4.66-5.53H1207v-9.84h20.72v9.39l7.8.57c.18,1.8.34,3.41.54,5.38h5V251.5h34.55v12.25H1281c.12-2.69.24-5.29.38-8.48h22.51c.2-2.17.36-3.78.56-6h12.48c.18-2.49.31-4.43.47-6.77l7-.67c-1.57-4.06,3.2-9.57-3.94-11.8V224.4l8.41-.41V211.23l-5.62-.94-.09-1.47,6-1.1c-1.07-9.06,1.42-16.16,11.81-18.13.18-3.75.37-7.56.56-11.36l2-.07c.16,3.69.32,7.38.49,11.21,8.65,2.9,12.43,8.92,10.62,18.34l7.21.92c0,.52,0,1.05,0,1.57l-6.79,1.07V224h9.35v6.41l-4.33.81v10.65l7.5.59c.13,2.12.26,4.07.42,6.59h12.55c.16,2.5.29,4.45.45,7h21.54c.16,3.17.29,5.77.44,8.77h10.91V249.51h45.73v36.11a28.36,28.36,0,0,0,3.67.53c27.33,0,54.66.15,82,0q38.67-.22,77.31-1.07c5.25-.12,6.63,1.59,6.31,6.54-.41,6.27-.1,12.6-.1,19.4H1680v31H0V312H53.37V294H63c.17-2.8.32-5.2.45-7.31l13.39-1.79.82-4.5H291.36l.94,4.22,13.34,3.27c.16,2.39.31,4.66.5,7.5H315v16.54h16.16v-6.64q0-133.69.06-267.38a47.74,47.74,0,0,1,6.23-22.95C341.18,8,347.24,4.35,353,0Z"/></g></g></svg>