<svg xmlns="http://www.w3.org/2000/svg" viewBox="0 0 1608 261" fill="#335cff"><defs><style>.cls-1{fill:#fff;}</style></defs><g id="Layer_2" data-name="Layer 2"><g id="Layer_1-2" data-name="Layer 1"><path d="M740,261V106h41.91V93.18H825V261Z"/><path d="M1494,261V125.15h24.9v44.62h11V150.13h42.93V170H1608v90h-59.48c-9.08,0-18.16,0-27.23,0a6.72,6.72,0,0,0-2.29,1Z"/><path d="M1262,261V39.17h50V261Z"/><path d="M219,261V57.17h54V261Z"/><path d="M684,261V82.17h52V261Z"/><ellipse cx="1055" cy="130.48" rx="24.04" ry="184.53"/><path d="M1218,261V19.18h35V261Z"/><path d="M516,261V86.17h46V261Z"/><path d="M0,150H14V129.1H57V261H0Z"/><path d="M417,261V82.17h26V261Z"/><path class="cls-1" d="M1519,261a6.72,6.72,0,0,1,2.29-1c9.07-.07,18.15,0,27.23,0H1608c-.17.33-.27.89-.51.95a6.73,6.73,0,0,1-1.74.05Z"/><path d="M1404.83,259.85h-59.7V19.2h59.7Z"/></g></g></svg>