<svg xmlns="http://www.w3.org/2000/svg" viewBox="0 0 691.96 692.11"><defs><style>.cls-1{fill:#21f5de;}</style></defs><g id="Layer_2" data-name="Layer 2"><g id="Layer_2-2" data-name="Layer 2"><path class="cls-1" d="M234.26,129.09A59.18,59.18,0,0,0,175,188.35a4,4,0,1,0,7.9,0A51.26,51.26,0,0,1,234.26,137a4,4,0,0,0,0-7.91Z"/><path class="cls-1" d="M346,620c-72.66,0-141.42-28.69-193.32-80.59S72.08,418.78,72.08,346A14.46,14.46,0,0,1,86.5,331.56h519A14.46,14.46,0,0,1,619.88,346C619.88,497.06,497.06,620,346,620ZM230.65,115.47a72.08,72.08,0,1,1-72.08,72.08A72.1,72.1,0,0,1,230.65,115.47Zm152.81,58.82L484.37,131a14.37,14.37,0,1,1,11.39,26.38l-69.92,30.13,69.92,30a14.41,14.41,0,0,1-5.62,27.67,14.07,14.07,0,0,1-5.77-1.29L383.46,200.67a14.21,14.21,0,0,1-8.65-13.12A14.41,14.41,0,0,1,383.46,174.29ZM346,0C155.26,0,0,155.26,0,346S155.26,692.11,346,692.11,692,536.85,692,346,536.7,0,346,0Z"/></g></g></svg>