<svg xmlns="http://www.w3.org/2000/svg" viewBox="0 0 1680 437.04"><defs><style>.cls-1{fill:#c2ceff;}.cls-2{fill:#ebefff;}</style></defs><g id="Layer_2" data-name="Layer 2"><g id="Layer_1-2" data-name="Layer 1"><path class="cls-1" d="M1625.58,26.48a238.46,238.46,0,0,0-80.51-5.83L1270.76,38.41C1227.3,54.6,1180.13,71,1135.54,58.19c-10.13-2.9-19.79-7.26-29.89-10.31-23.82-7.18-49.78-7-72.48-17.21C1016.29,23.08,1000,15.36,983,8.08,961.51-1.08,937.25-1.09,914,1.44S867.8,8.87,844.46,9c-22.36.11-45.36-4.09-66.67,2.66-12.13,3.84-22.89,11-34.51,16.17s-24.23,8.35-36.67,11.46c-25,6.25-49,23.25-74.74,22-24.48-1.17-49.6-2.25-72.88,5.43-8.08,2.66-15.87,6.36-24.24,7.94-6.4,1.21-13,1.15-19.47,1.07C464.1,75.18,412.81,74.6,362,68.64c-38.33-4.49-76.36-10.31-113.39.57-8.8,2.59-18.48,5.14-26.89,1.47-2.7-1.18-5.12-3-7.89-3.94-6.12-2.19-12.87-.27-19.08,1.66l-31.34,9.7C131.94,87.84,100,97.66,67.13,98.9c-22.39.85-44.72-2.31-66.9-5.46L0,93.4V260.19c33.87-20,74.71-28.67,113.05-37.33l109-24.6c10.25-2.31,20.51-4.63,30.93-6,45.39-6,91,6.08,135.2,18,38.56,10.43,78.76,13.3,118.68,15,48.52,2.08,96.4-13.64,145-12.44,30.81.77,61,8.32,90.88,15.83,43.32,10.89,88.84,10.41,133.11,16.48,17,2.34,34.05,4.67,51.18,5.84,32.53,2.22,65.24.2,97.54-4.14,40.8-5.49,81-14.69,121.13-23.87l62.94-14.39c22-5,43-14.94,65.58-14.81,14.15.08,26.87-2.1,40.75-4.89,61.77-12.46,125.54,1.91,186.44,18.09,58.62,15.58,118.24,33.05,178.66,30.13V38.48C1661.63,36.65,1643.54,30.94,1625.58,26.48Z"/><path class="cls-2" d="M1459.91,189.27c-11.65-3.51-23.29-7.18-35.24-9.46-28.81-5.49-58.48-2.78-87.68,0-37.23,3.49-74.62,7-110.91,16-11.29,2.81-21.84,5.84-33.24,8.18l-156.55,32.21c-16.27,3.35-32.58,6.7-49.11,8.32-56.27,5.5-114.74,7.17-169.85-5.48l-54.61-12.54c-41.28-9.47-83.05-19-125.39-18.19-54.09,1-107.22,15.77-161.31,14.81-35.95-.63-71-10.59-105.89-19.19-38.24-9.42-77.56-17.32-116.79-13.8-18.28,1.64-36.23,5.74-54.12,9.82C132,215.31,64.38,230.8.92,257.77c-.31.13-.62.28-.92.42V437H1680V237.16A1438,1438,0,0,1,1459.91,189.27Z"/><path class="cls-2" d="M809,237.18c25.4,1.34,50.91,2.7,75.88,7.56q10.25,2,20.3,4.76c-29.79,2.16-60.15,1.47-89-6.39C813.12,242.26,809.87,240.25,809,237.18Z"/><path class="cls-1" d="M1268.87,37A1942.62,1942.62,0,0,1,1518,22.06c-68.88,11.05-136.26,40.53-205.61,33C1296.3,53.26,1280.41,48.36,1268.87,37Z"/><path class="cls-1" d="M1246.4,45.87c10.51.51,21.09,1,31.52-.41,7.95-1.09,15.7-3.29,23.42-5.48l24.38-6.93c-13.8,3.85-31.26-1.75-45.55,0C1268.45,34.52,1257.28,41.36,1246.4,45.87Z"/><path class="cls-2" d="M17.16,150.17a79.84,79.84,0,0,1,35.3,2.34c14.43,4.31,26.24,13.28,34.94,25.58,1.93,2.72,3.88,5.54,4.68,8.78,2.09,8.46-5.56,17.56-14.27,17.77s-16.55-7.59-17.26-16.28c-.3-3.55.34-7.43-1.59-10.43a12.07,12.07,0,0,0-4.15-3.58,44.45,44.45,0,0,0-23-6.24c-4.36,0-8.75.7-13-.05s-8.65-3.35-9.82-7.55C7.52,155.2,11.74,149.16,17.16,150.17Z"/><path class="cls-2" d="M161.85,164.76c-5.23-4.66-10.61-9.41-17.11-12-8.44-3.41-18.81-3.32-25.07-9.94-3.75-4-5.37-9.81-9.81-13-3-2.11-6.7-2.69-10.29-3.21-14.16-2.06-34.25-8.15-46.2,1.6,13.19,4.34,28.94,2.75,41.17,10.73,9.7,6.33,13.29,15.49,24.74,19.85C129.5,162.64,154.08,157.84,161.85,164.76Z"/><path class="cls-2" d="M155.9,104.23c-5.7,2.36-12.6,7.84-9.48,13.16L181,121c5.2.54,10.63,1.16,15,4.05s7.19,8.8,4.88,13.49l-27,5.25c-5.3,1-10.67,2.06-16.06,1.78a34.07,34.07,0,0,1-28.63-19.46,25.28,25.28,0,0,1-2.24-7.83,20,20,0,0,1,34.93-15.21,36.79,36.79,0,0,1-12.43,3.36"/><path class="cls-2" d="M299.94,93.47c43.1-3.79,80.77,31.65,124,34.45,21.24,1.38,42.46-5.29,63.65-3.35,29.33,2.69,54.44,21.25,77.84,39.13-21.64-4-44.77,4.23-65.64-2.76-7.47-2.51-14.18-6.84-21.48-9.77-36.25-14.56-78.69,7.49-116-4.07-10.2-3.17-19.5-8.73-29.57-12.29-31.81-11.25-63.48-.74-94.84,5.86C226.38,119.58,284.36,94.83,299.94,93.47Z"/><path class="cls-2" d="M575.1,132.66c15.86-1.32,30.62-9.6,46.52-10.24,18.83-.76,36.18,9.15,53,17.6a403.73,403.73,0,0,0,91.12,32.75L692.13,130c-14.17-8.22-28.63-16.56-44.64-20-15.8-3.38-32.16-1.8-48.29-1.07a449.22,449.22,0,0,1-147.7-18c.5.14,5.79,14.52,15.11,16.58,11.71,2.59,23.62.13,36,4.12C526.46,119.27,549.06,134.82,575.1,132.66Z"/><path class="cls-2" d="M735.57,92.8c29.23-3.44,56.36,14.1,80.55,30.86,2.2,1.53,4.6,3.35,5,6,.81,5.17-6,7.88-11.23,8.07a72.73,72.73,0,0,1-37-8.6c-7.91-4.26-15-10-23.31-13.48-19.46-8.2-47.06-1.72-62.86-17.23C689.37,94.08,725.69,94,735.57,92.8Z"/><path class="cls-2" d="M835.13,98.1c-14.77-5.61-26.79-16.55-40.38-24.62-23.62-14-55.2-18.6-78.08-3.37-2.26,1.51-3.78,2.82-3.94,5.4,21.21-5.78,41.09-2.8,61.49,5.18,10.36,4,20.2,9.47,30.8,12.92C814.32,96.65,826.85,95,835.13,98.1Z"/><path class="cls-2" d="M814.44,33.18a42.57,42.57,0,0,0-15.27,14.33l36.13.18c5.17,0,11.83,1.23,12.74,6.32,1.08,6-6.94,9.05-13,9.69-15.89,1.69-33.08,3.11-46.75-5.17-4-2.43-7.82-6.24-7.77-10.92.06-5,4.43-8.77,8.64-11.47A89.18,89.18,0,0,1,811.2,25.93a10.46,10.46,0,0,1,1.07,8.3"/><path class="cls-2" d="M937.8,112c42-1.35,81.7,19.45,123.59,22,24.33,1.5,51.43-2.46,70.72,12.45l-112.28,11.05c-21.69,2.14-43.78,4.25-65.13-.16-15.4-3.19-32.93-9.33-45.64-.06-5.21,3.8-8.5,9.6-12.47,14.68-11.37,14.54-29.73,22.34-47.94,22.86-14.71.42-46.46-5.07-38.27-21.78,7.48-15.26,44.54-32.81,59.21-40.71C890.68,121,913.66,112.77,937.8,112Z"/><path class="cls-2" d="M1031.57,98.84a326.16,326.16,0,0,0,103.09.23c-21.68,3.43-55-13-75.28-19.77C1034.22,70.92,1009,61.57,982.76,57c-18.71-3.27-40.53,4.88-18.07,20.56C981.31,89.15,1011.85,95.63,1031.57,98.84Z"/><path class="cls-2" d="M1170.14,140.84c5.19-5.46,6.4-13.84,4.67-21.17s-6-13.81-10.58-19.77c4.47,4.16,10.49,8.64,16.09,6.19,4.44-1.94,6.08-7.29,7.21-12q2.13-8.86,4.25-17.72c1.57,5.67,1.66,8,3.23,13.62,1,3.6,2.15,7.44,5,9.79,4.7,3.79,11.58,2,17.35.29q14.65-4.49,29.68-7.55c18.33-3.75,39-5.43,54.22,5.53,12,8.68,28.76,11.2,43.57,12,.78-5.24-4.59-9.13-9.24-11.67a265.33,265.33,0,0,1,52,17.85c22.19,10.29,43.51,23.84,67.69,27.52-.24,4.76-6.06,6.89-10.79,7.44a91.14,91.14,0,0,1-38.12-3.72c-19.13-6.12-37.8-17.69-52.94-30.89-5,4.32-2.9,14.1,3.5,15.9-8.21,2.59-16.36-3.25-23.91-7.39-15.4-8.45-33.4-10.43-50.87-12.26-17.68-1.85-37-3.34-51.86,6.4-4.75,3.11-8.85,7.27-14,9.62-7.73,3.53-16.64,2.54-25.11,3.1S1173.3,133,1170.14,140.84Z"/><path class="cls-2" d="M1306.72,81.55a63.61,63.61,0,0,1,35.1-13.64l-29.74,19.93a139,139,0,0,1,46.22-5c12.27.74,22-6.36,34.18-8,2.58-.36,5.27-.67,7.77.1,2.71.83,4.87,2.83,7,4.72,9.78,8.74,20.74,16.51,33.21,20.58s26.65,4.11,38.25-2c3.22-1.71,6.25-3.87,9.73-4.93,11.9-3.6,23.2,6.45,31.58,15.62l16.76,18.31c7.76,8.48,21.19,11.46,32.45,13.78a142.4,142.4,0,0,0-23.63-21.12,89.78,89.78,0,0,0,48.13-12.66c-20.41,7.35-45.49-2.14-55.93-21.15-6.18-11.26-14.68-24.94-23.11-34.63l.84,20.48c-40.61.26-79.76-13.75-119.63-21.42s-84.55-8-117.17,16.23c6.08-1.1,12.42-2.18,18.33-.42S1307.46,75.42,1306.72,81.55Z"/><path class="cls-2" d="M1594.74,93.21c9-7.59,21.42-15.56,31.51-9.53,4.25,2.54,6.86,7.06,10.47,10.46a24.75,24.75,0,0,0,20.23,6.38c4.58-3.76,4.2-11.39.5-16s-9.69-6.78-15.52-7.87-11.83-1.34-17.46-3.2c-7.56-2.5-14.6-7.9-22.52-7.11-6.26.62-11.58,5.18-14.76,10.61s-4.57,11.69-5.92,17.83a42.71,42.71,0,0,1,19.81-5.56"/><path class="cls-2" d="M1635.94,167.57c2.43,4.89-4.54,9-9.91,9.91a291,291,0,0,1-55.67,4.53c-3.91-.06-7.93-.22-11.52-1.78-7.35-3.19-16.61-11.42-15.18-19.29,15.48,3.61,30.51,7.81,46.53,9C1594.12,170.21,1636,167.61,1635.94,167.57Z"/></g></g></svg>